# xmcd
#
# Track frame offsets: 
#        150
#        20362
#        45592
#        70752
#        90422
#        109067
#        128925
#        147207
#        165725
#        185137
#        202685
#        227700
#        247375
#        265990
#        285232
#        302897
#        320787
#        340002
#
# Disc length: 4781 seconds
#
# Revision: 8
# Processed by: cddbd v1.5.2PL0 Copyright (c) Steve Scherf et al.
# Submitted via: ExactAudioCopyFreeDBPlugin 1.0
#
DISCID=0412ab12
DTITLE=Anita Baker - The Best of Anita Baker
DYEAR=2002
DGENRE=SMB
TTITLE0=Angel (single version)
TTITLE1=You're the Best Thing Yet
TTITLE2=No More Tears
TTITLE3=Sweet Love
TTITLE4=Caught Up in the Rapture (single version)
TTITLE5=You Bring Me Joy
TTITLE6=Same Ole Love (365 Days a Year)
TTITLE7=No One in the World
TTITLE8=Ain't No Need to Worry (single version) (with The Winans)
TTITLE9=Giving You the Best That I Got (single version)
TTITLE10=Good Love
TTITLE11=Just Because (single version)
TTITLE12=Lead Me Into Love (single version)
TTITLE13=Fairy Tales (edit)
TTITLE14=Talk to Me (single version)
TTITLE15=Body and Soul (radio edit)
TTITLE16=I Apologize (single version)
TTITLE17=It's Been You (single version)
EXTD=YEAR: 2002
EXTT0=
EXTT1=
EXTT2=
EXTT3=
EXTT4=
EXTT5=
EXTT6=
EXTT7=
EXTT8=
EXTT9=
EXTT10=
EXTT11=
EXTT12=
EXTT13=
EXTT14=
EXTT15=
EXTT16=
EXTT17=
PLAYORDER=
